<svg id="图层_1" data-name="图层 1" xmlns="http://www.w3.org/2000/svg" xmlns:xlink="http://www.w3.org/1999/xlink" viewBox="0 0 137.63 37.39"><defs><style>.cls-1{fill:none;clip-rule:evenodd;}.cls-2{clip-path:url(#clip-path);}.cls-3{fill:#eee;}</style><clipPath id="clip-path" transform="translate(0.81 -0.91)"><path class="cls-1" d="M49.56,2.43l2,2a1.57,1.57,0,0,1,0,2.61l-2,2A1.56,1.56,0,0,1,47,9L45,7a1.57,1.57,0,0,1,0-2.61l2-2A1.55,1.55,0,0,1,49.56,2.43ZM122.78,17.5H111.09c-6.57,0-7.15,5.38-7.15,7s.58,7,7.15,7h11.69c6.57,0,7.15-5.38,7.15-7S129.35,17.5,122.78,17.5Zm-118-5.32c1.62,0,2,.28,2.58,1.21S18.82,30.85,18.82,30.85a1.32,1.32,0,0,0,2.34,0S32,14.32,32.62,13.39s1-1.21,2.58-1.21H39c1,0,1.27.68.72,1.52L26.77,33.34c-2,2.95-3.48,4.14-6.78,4.14s-4.77-1.19-6.78-4.14L.27,13.7c-.55-.84-.25-1.52.73-1.52Zm56.54,0c1.62,0,2,.28,2.58,1.21S75.36,30.85,75.36,30.85a1.32,1.32,0,0,0,2.34,0S88.53,14.32,89.16,13.39s1-1.21,2.58-1.21h3.78c.88,0,1.27.68.73,1.52L83.31,33.34c-2,2.95-3.48,4.14-6.78,4.14s-4.77-1.19-6.78-4.14L56.81,13.7c-.55-.84-.15-1.52.72-1.52Zm61.46-.6c12.14,0,13.22,9.92,13.22,13s-1.08,12.95-13.22,12.95H111.09c-12.14,0-13.22-9.92-13.22-12.95S99,11.58,111.09,11.58Zm-73.09.6c1.15,0,1.61.46,1.61,1.61V35.88c0,1.15-.46,1.6-1.61,1.6H46.83c-1.15,0-1.61-.45-1.61-1.6V13.79c0-1.15.46-1.61,1.61-1.61Z"/></clipPath></defs><title>vivo最新svg</title><g class="cls-2"><rect class="cls-3" width="137.63" height="37.39"/></g></svg>