<?xml version="1.0" encoding="UTF-8"?>
<svg xmlns="http://www.w3.org/2000/svg" xmlns:xlink="http://www.w3.org/1999/xlink" width="175px" height="42px" viewBox="0 0 174 42" version="1.1">
<g id="surface1">
<path style=" stroke:none;fill-rule:nonzero;fill:rgb(5.882353%,17.647059%,70.196078%);fill-opacity:1;" d="M 173.75 41.160156 C 170.90625 39.816406 167.726562 39.144531 164.546875 39.144531 C 161.367188 39.144531 158.023438 39.816406 155.34375 41.160156 L 155.34375 22.511719 L 173.917969 22.511719 Z M 173.75 41.160156 "/>
<path style=" stroke:none;fill-rule:nonzero;fill:rgb(100%,100%,100%);fill-opacity:1;" d="M 157.519531 28.222656 C 156.683594 28.222656 156.515625 29.0625 156.515625 29.0625 L 156.015625 29.0625 L 156.015625 27.71875 L 159.191406 27.71875 C 159.191406 27.71875 159.191406 28.726562 158.1875 29.734375 C 158.1875 29.734375 157.1875 30.742188 157.1875 31.246094 L 157.6875 31.246094 C 158.523438 31.246094 158.523438 30.40625 158.523438 30.40625 L 159.027344 30.40625 L 159.027344 31.753906 L 155.679688 31.753906 C 155.679688 31.753906 155.511719 30.742188 156.683594 29.566406 C 156.683594 29.566406 157.351562 28.726562 157.519531 28.222656 Z M 157.519531 28.222656 "/>
<path style=" stroke:none;fill-rule:nonzero;fill:rgb(100%,100%,100%);fill-opacity:1;" d="M 165.71875 31.753906 L 165.71875 31.246094 C 165.550781 31.246094 165.382812 31.078125 165.382812 30.910156 L 165.382812 28.558594 C 165.382812 28.390625 165.550781 28.222656 165.71875 28.222656 L 165.71875 27.71875 L 163.542969 27.71875 L 163.542969 28.222656 C 163.710938 28.222656 163.878906 28.390625 163.878906 28.558594 L 163.878906 31.078125 C 163.878906 31.246094 163.710938 31.414062 163.542969 31.414062 L 163.542969 31.921875 L 165.71875 31.921875 Z M 165.71875 31.753906 "/>
<path style=" stroke:none;fill-rule:nonzero;fill:rgb(100%,100%,100%);fill-opacity:1;" d="M 163.207031 31.753906 L 163.207031 30.40625 L 162.707031 30.40625 C 162.707031 30.40625 162.707031 31.246094 161.871094 31.246094 L 161.367188 31.246094 L 161.367188 29.902344 L 161.535156 29.902344 C 161.703125 29.902344 161.871094 30.070312 161.871094 30.238281 L 161.871094 30.40625 L 162.371094 30.40625 L 162.371094 29.0625 L 161.871094 29.0625 L 161.871094 29.230469 C 161.871094 29.398438 161.703125 29.566406 161.535156 29.566406 L 161.367188 29.566406 L 161.367188 28.222656 L 161.871094 28.222656 C 162.707031 28.222656 162.707031 29.0625 162.707031 29.0625 L 163.207031 29.0625 L 163.207031 27.71875 L 159.863281 27.71875 L 159.863281 28.222656 C 160.03125 28.222656 160.195312 28.390625 160.195312 28.558594 L 160.195312 31.078125 C 160.195312 31.246094 160.03125 31.414062 159.863281 31.414062 L 159.863281 31.921875 Z M 163.207031 31.753906 "/>
<path style=" stroke:none;fill-rule:nonzero;fill:rgb(100%,100%,100%);fill-opacity:1;" d="M 168.0625 28.222656 C 168.898438 28.222656 169.0625 29.0625 169.0625 29.0625 L 169.566406 29.0625 L 169.566406 27.71875 L 166.386719 27.71875 C 166.386719 27.71875 165.886719 28.390625 167.222656 29.734375 C 167.222656 29.734375 168.226562 30.742188 168.226562 31.246094 L 167.726562 31.246094 C 166.890625 31.246094 166.890625 30.40625 166.890625 30.40625 L 166.386719 30.40625 L 166.386719 31.753906 L 169.566406 31.753906 C 169.566406 31.753906 170.066406 31.078125 168.730469 29.566406 C 168.730469 29.566406 168.0625 28.726562 167.894531 28.222656 Z M 168.0625 28.222656 "/>
<path style=" stroke:none;fill-rule:nonzero;fill:rgb(100%,100%,100%);fill-opacity:1;" d="M 171.742188 28.222656 C 172.578125 28.222656 172.746094 29.0625 172.746094 29.0625 L 173.246094 29.0625 L 173.246094 27.71875 L 170.066406 27.71875 C 170.066406 27.71875 169.566406 28.390625 170.90625 29.734375 C 170.90625 29.734375 171.910156 30.742188 171.910156 31.246094 L 171.40625 31.246094 C 170.570312 31.246094 170.570312 30.40625 170.570312 30.40625 L 170.066406 30.40625 L 170.066406 31.753906 L 173.246094 31.753906 C 173.246094 31.753906 173.75 31.078125 172.410156 29.566406 C 172.410156 29.566406 171.742188 28.726562 171.574219 28.222656 Z M 171.742188 28.222656 "/>
<path style=" stroke:none;fill-rule:nonzero;fill:rgb(0%,0%,0%);fill-opacity:1;" d="M 92.605469 30.238281 L 92.605469 30.742188 L 90.429688 30.742188 L 90.429688 30.238281 C 90.09375 30.574219 89.59375 30.910156 89.089844 31.246094 L 93.941406 31.246094 L 93.941406 31.921875 L 92.101562 31.921875 L 92.101562 32.929688 C 92.101562 33.265625 92.101562 33.433594 91.9375 33.601562 C 91.769531 33.601562 91.433594 33.769531 91.097656 33.769531 L 90.429688 33.769531 L 90.429688 33.265625 L 91.097656 33.265625 C 91.265625 33.265625 91.433594 33.265625 91.433594 33.265625 C 91.433594 33.265625 91.433594 33.097656 91.433594 32.929688 L 91.433594 32.089844 L 89.257812 32.089844 L 89.257812 31.414062 C 89.089844 31.585938 88.757812 31.753906 88.253906 31.921875 L 87.921875 31.246094 C 88.421875 31.078125 88.757812 30.910156 89.089844 30.574219 C 88.925781 30.40625 88.757812 30.238281 88.589844 30.070312 L 89.089844 29.734375 C 89.257812 29.902344 89.59375 30.070312 89.761719 30.238281 C 89.929688 30.070312 90.09375 30.070312 90.09375 29.902344 C 89.761719 29.566406 89.59375 29.398438 89.425781 29.398438 L 89.761719 29.0625 C 90.09375 29.230469 90.261719 29.398438 90.429688 29.566406 C 90.597656 29.398438 90.765625 29.0625 90.933594 28.894531 L 89.761719 28.894531 C 89.425781 29.230469 88.925781 29.734375 88.421875 29.902344 L 88.085938 29.398438 C 88.757812 28.894531 89.257812 28.390625 89.761719 27.886719 L 90.09375 27.886719 L 90.09375 27.550781 L 88.253906 27.550781 L 88.253906 26.878906 L 90.09375 26.878906 L 90.09375 26.375 L 90.765625 26.375 L 90.765625 26.878906 L 92.4375 26.878906 L 92.4375 26.375 L 93.105469 26.375 L 93.105469 26.878906 L 94.945312 26.878906 L 94.945312 27.550781 L 93.105469 27.550781 L 93.105469 28.054688 L 92.4375 28.054688 L 92.4375 27.550781 L 90.765625 27.550781 L 90.765625 27.886719 L 90.261719 27.886719 L 90.429688 27.886719 C 90.429688 27.886719 90.261719 28.054688 90.09375 28.390625 L 91.433594 28.390625 C 91.433594 28.390625 91.433594 28.222656 91.433594 28.054688 L 92.101562 28.054688 C 92.101562 28.222656 92.101562 28.390625 92.269531 28.558594 L 94.613281 28.558594 L 94.613281 29.230469 C 94.445312 29.398438 94.109375 29.902344 93.609375 30.40625 C 94.109375 30.742188 94.613281 30.910156 95.113281 31.246094 L 94.78125 31.921875 C 93.777344 31.078125 93.105469 30.574219 92.605469 30.238281 Z M 88.421875 33.433594 L 88.085938 32.761719 C 88.757812 32.59375 89.425781 32.257812 89.929688 31.921875 L 90.429688 32.425781 C 89.59375 32.761719 88.925781 33.097656 88.421875 33.433594 Z M 92.4375 30.070312 C 91.9375 29.566406 91.601562 29.0625 91.433594 28.390625 L 91.433594 28.894531 C 91.097656 29.398438 90.933594 29.734375 90.429688 30.070312 C 90.597656 30.070312 92.4375 30.070312 92.4375 30.070312 Z M 92.9375 29.566406 C 92.9375 29.566406 93.273438 29.230469 93.777344 28.726562 L 92.4375 28.726562 C 92.605469 29.0625 92.773438 29.398438 92.9375 29.566406 Z M 94.445312 33.433594 C 93.941406 33.097656 93.273438 32.929688 92.605469 32.425781 L 92.9375 31.921875 C 93.609375 32.089844 94.277344 32.425781 94.78125 32.761719 Z M 94.445312 33.433594 "/>
<path style=" stroke:none;fill-rule:nonzero;fill:rgb(0%,0%,0%);fill-opacity:1;" d="M 98.628906 28.894531 L 98.628906 28.222656 L 103.8125 28.222656 L 103.8125 28.894531 Z M 102.8125 33.433594 L 102.644531 32.59375 L 103.8125 32.59375 C 103.980469 32.59375 104.316406 32.59375 104.316406 32.59375 C 104.316406 32.59375 104.484375 32.425781 104.484375 32.257812 L 104.484375 27.382812 L 99.128906 27.382812 L 99.128906 26.710938 L 105.320312 26.710938 L 105.320312 32.59375 C 105.320312 32.929688 105.320312 33.097656 104.984375 33.265625 C 104.816406 33.433594 104.484375 33.433594 103.980469 33.433594 Z M 99.296875 32.257812 L 99.296875 29.734375 L 103.144531 29.734375 L 103.144531 32.257812 Z M 102.476562 31.414062 L 102.476562 30.238281 L 100.132812 30.238281 L 100.132812 31.414062 Z M 102.476562 31.414062 "/>
<path style=" stroke:none;fill-rule:nonzero;fill:rgb(0%,0%,0%);fill-opacity:1;" d="M 112.011719 32.089844 L 112.011719 33.433594 L 111.34375 33.433594 L 111.34375 32.089844 C 111.007812 32.089844 110.339844 32.257812 109.503906 32.425781 L 109.335938 31.753906 C 109.503906 31.753906 109.671875 31.753906 109.835938 31.753906 L 109.835938 27.382812 L 109.335938 27.382812 L 109.335938 26.710938 L 112.347656 26.710938 L 112.347656 27.382812 L 112.011719 27.382812 L 112.011719 31.414062 C 112.179688 31.414062 112.347656 31.414062 112.515625 31.414062 L 112.515625 31.921875 C 112.347656 32.089844 112.179688 32.089844 112.011719 32.089844 Z M 111.34375 28.390625 L 111.34375 27.382812 L 110.507812 27.382812 L 110.507812 28.390625 Z M 111.34375 29.902344 L 111.34375 28.894531 L 110.507812 28.894531 L 110.507812 29.902344 Z M 111.34375 31.585938 L 111.34375 30.574219 L 110.507812 30.574219 L 110.507812 31.753906 C 110.675781 31.753906 110.839844 31.585938 111.34375 31.585938 Z M 114.6875 30.40625 C 114.855469 30.910156 115.023438 31.414062 115.359375 31.753906 C 115.691406 32.089844 116.027344 32.425781 116.53125 32.761719 L 116.027344 33.433594 C 115.527344 33.097656 115.191406 32.761719 115.023438 32.425781 C 114.6875 32.089844 114.523438 31.753906 114.355469 31.246094 C 114.019531 32.089844 113.519531 32.761719 112.683594 33.433594 L 112.179688 32.761719 C 112.683594 32.425781 113.183594 32.089844 113.351562 31.585938 C 113.6875 31.246094 113.851562 30.742188 113.851562 30.238281 L 112.347656 30.238281 L 112.347656 29.566406 L 113.851562 29.566406 C 113.851562 29.230469 113.851562 28.726562 113.851562 28.390625 L 112.515625 28.390625 L 112.515625 27.71875 L 114.355469 27.71875 C 114.6875 27.046875 115.023438 26.542969 115.191406 26.207031 L 115.859375 26.542969 C 115.691406 27.046875 115.359375 27.382812 115.023438 27.886719 L 116.027344 27.886719 L 116.027344 28.558594 L 114.523438 28.558594 C 114.523438 28.726562 114.523438 29.0625 114.523438 29.398438 C 114.523438 29.566406 114.523438 29.566406 114.523438 29.734375 L 116.363281 29.734375 L 116.363281 30.40625 Z M 113.519531 27.886719 C 113.183594 27.382812 113.015625 27.046875 112.847656 26.710938 L 113.519531 26.375 C 113.851562 26.878906 114.019531 27.382812 114.355469 27.550781 Z M 113.519531 27.886719 "/>
<path style=" stroke:none;fill-rule:nonzero;fill:rgb(0%,0%,0%);fill-opacity:1;" d="M 125.398438 28.894531 L 125.398438 29.566406 L 121.550781 29.566406 L 121.550781 29.0625 C 121.214844 29.230469 120.710938 29.566406 120.210938 29.902344 L 119.707031 29.230469 C 121.214844 28.390625 122.386719 27.550781 123.054688 26.542969 L 123.890625 26.542969 C 124.5625 27.550781 125.5625 28.390625 127.238281 29.230469 L 126.734375 29.902344 C 126.402344 29.398438 125.898438 29.0625 125.398438 28.894531 Z M 125.398438 33.097656 L 121.714844 33.097656 L 121.714844 33.601562 L 120.878906 33.601562 L 120.878906 30.238281 L 126.066406 30.238281 L 126.066406 33.601562 L 125.230469 33.601562 Z M 125.398438 32.425781 L 125.398438 31.078125 L 121.714844 31.078125 L 121.714844 32.425781 Z M 125.398438 28.726562 C 124.726562 28.222656 124.058594 27.71875 123.558594 27.046875 C 123.054688 27.550781 122.554688 28.054688 121.714844 28.726562 Z M 125.398438 28.726562 "/>
<path style=" stroke:none;fill-rule:nonzero;fill:rgb(0%,0%,0%);fill-opacity:1;" d="M 132.089844 28.894531 L 133.429688 28.894531 L 133.429688 32.59375 L 132.089844 32.59375 L 132.089844 33.097656 L 131.421875 33.097656 L 131.421875 30.238281 C 131.253906 30.574219 131.085938 30.742188 130.917969 30.910156 L 130.582031 30.070312 C 131.085938 29.230469 131.585938 28.390625 131.753906 27.382812 L 130.75 27.382812 L 130.75 26.710938 L 133.429688 26.710938 L 133.429688 27.382812 L 132.425781 27.382812 C 132.425781 28.054688 132.257812 28.390625 132.089844 28.894531 Z M 132.089844 31.921875 L 132.757812 31.921875 L 132.757812 29.566406 L 132.089844 29.566406 Z M 136.941406 30.238281 L 136.941406 33.433594 L 136.105469 33.433594 L 136.105469 30.238281 L 135.101562 30.238281 C 135.101562 31.078125 134.933594 31.585938 134.765625 32.089844 C 134.597656 32.59375 134.265625 33.097656 133.761719 33.601562 L 133.261719 33.097656 C 133.761719 32.59375 133.929688 32.257812 134.097656 31.921875 C 134.265625 31.585938 134.265625 30.910156 134.433594 30.238281 L 133.761719 30.238281 L 133.761719 29.566406 L 134.597656 29.566406 L 134.597656 27.550781 L 133.929688 27.550781 L 133.929688 26.878906 L 137.609375 26.878906 L 137.609375 27.550781 L 136.941406 27.550781 L 136.941406 29.566406 L 137.945312 29.566406 L 137.945312 30.238281 Z M 136.273438 29.398438 L 136.273438 27.382812 L 135.269531 27.382812 L 135.269531 29.398438 Z M 136.273438 29.398438 "/>
<path style=" stroke:none;fill-rule:nonzero;fill:rgb(0%,0%,0%);fill-opacity:1;" d="M 146.144531 31.921875 C 146.644531 32.257812 147.480469 32.425781 148.484375 32.59375 L 147.984375 33.601562 C 146.8125 33.265625 145.976562 32.929688 145.472656 32.59375 C 144.804688 32.929688 143.96875 33.433594 142.796875 33.769531 L 142.460938 32.929688 C 143.464844 32.59375 144.136719 32.425781 144.804688 32.089844 C 144.304688 31.753906 143.96875 31.078125 143.632812 30.574219 C 143.132812 31.585938 142.460938 32.425781 141.625 33.433594 L 141.292969 32.425781 C 142.296875 31.414062 143.132812 30.070312 143.464844 28.726562 L 141.625 28.726562 L 141.625 28.054688 C 141.792969 27.550781 141.960938 27.214844 142.128906 26.710938 L 142.964844 26.878906 C 142.796875 27.550781 142.628906 27.886719 142.460938 28.054688 L 143.800781 28.054688 C 143.96875 27.550781 144.136719 27.046875 144.136719 26.542969 L 144.972656 26.542969 C 144.972656 27.046875 144.804688 27.550781 144.636719 28.054688 L 148.484375 28.054688 L 148.484375 28.726562 L 144.46875 28.726562 C 144.46875 29.0625 144.304688 29.230469 144.136719 29.566406 L 147.648438 29.566406 L 147.648438 30.238281 C 147.3125 30.742188 146.8125 31.414062 146.144531 31.921875 Z M 145.472656 31.414062 C 145.976562 31.078125 146.476562 30.574219 146.644531 30.070312 L 144.304688 30.070312 C 144.636719 30.742188 145.140625 31.078125 145.472656 31.414062 Z M 147.148438 27.886719 C 146.476562 27.382812 146.144531 26.878906 145.976562 26.878906 L 146.476562 26.375 C 146.476562 26.375 146.980469 26.710938 147.648438 27.382812 Z M 147.148438 27.886719 "/>
<path style=" stroke:none;fill-rule:nonzero;fill:rgb(0%,0%,0%);fill-opacity:1;" d="M 124.894531 13.441406 C 125.398438 13.945312 125.730469 14.449219 126.234375 14.785156 L 127.90625 13.441406 C 126.566406 12.097656 125.0625 10.414062 123.222656 8.734375 L 121.550781 9.742188 C 122.050781 10.246094 122.554688 10.753906 123.054688 11.425781 C 120.210938 11.425781 117.699219 11.59375 115.359375 11.761719 C 117.199219 10.921875 118.871094 10.078125 120.710938 9.070312 C 122.386719 8.0625 124.226562 7.222656 125.898438 6.214844 L 124.058594 4.703125 C 123.054688 5.375 121.882812 6.046875 120.378906 7.054688 C 118.539062 7.054688 116.695312 7.222656 115.191406 7.222656 C 115.859375 6.71875 116.863281 6.214844 117.867188 5.710938 C 118.539062 5.375 119.207031 4.871094 120.042969 4.367188 C 122.71875 4.199219 125.230469 4.03125 127.40625 3.863281 L 127.070312 1.679688 C 122.554688 2.015625 116.863281 2.183594 110.003906 2.351562 L 110.507812 4.535156 C 112.347656 4.535156 114.355469 4.367188 116.363281 4.367188 C 116.363281 4.367188 116.195312 4.367188 116.195312 4.535156 C 116.027344 4.535156 115.859375 4.703125 115.859375 4.871094 C 114.855469 5.542969 114.019531 6.214844 112.847656 6.71875 C 112.347656 6.886719 111.84375 7.222656 111.175781 7.222656 L 111.679688 9.070312 C 113.6875 9.070312 115.527344 8.902344 117.367188 8.902344 C 115.691406 9.910156 114.1875 10.585938 112.847656 11.257812 C 112.179688 11.59375 111.511719 11.761719 110.675781 11.929688 L 111.175781 13.945312 C 113.851562 13.945312 116.195312 13.777344 118.203125 13.609375 L 118.203125 16.96875 C 118.203125 17.304688 118.203125 17.472656 118.035156 17.640625 C 117.867188 17.808594 117.535156 17.808594 117.03125 17.808594 L 115.023438 17.808594 L 115.359375 19.992188 L 117.199219 19.992188 C 118.371094 19.992188 119.207031 19.824219 119.542969 19.488281 C 120.042969 19.152344 120.210938 18.480469 120.210938 17.640625 L 120.210938 13.609375 C 121.550781 13.609375 122.886719 13.441406 124.394531 13.441406 Z M 124.894531 13.441406 "/>
<path style=" stroke:none;fill-rule:nonzero;fill:rgb(0%,0%,0%);fill-opacity:1;" d="M 123.054688 14.28125 L 121.550781 15.960938 C 123.390625 17.304688 125.230469 18.480469 126.902344 19.65625 L 128.410156 17.808594 C 126.566406 16.632812 124.726562 15.457031 123.054688 14.28125 Z M 123.054688 14.28125 "/>
<path style=" stroke:none;fill-rule:nonzero;fill:rgb(0%,0%,0%);fill-opacity:1;" d="M 115.859375 15.792969 L 114.355469 14.113281 C 112.683594 15.457031 111.007812 16.800781 109.167969 17.808594 L 110.507812 19.65625 C 112.347656 18.648438 114.019531 17.304688 115.859375 15.792969 Z M 115.859375 15.792969 "/>
<path style=" stroke:none;fill-rule:nonzero;fill:rgb(0%,0%,0%);fill-opacity:1;" d="M 130.917969 4.03125 L 134.097656 4.03125 C 133.59375 6.71875 132.257812 9.070312 130.25 11.425781 L 131.421875 13.441406 C 132.925781 11.761719 134.097656 10.246094 134.765625 8.566406 L 138.113281 8.566406 C 137.777344 9.910156 137.441406 10.921875 136.941406 11.929688 C 136.105469 11.257812 135.269531 10.753906 134.597656 10.246094 L 133.261719 11.929688 C 134.097656 12.601562 134.933594 13.273438 135.769531 13.945312 C 134.765625 15.457031 132.925781 17.136719 130.917969 18.648438 L 132.425781 20.496094 C 134.933594 18.648438 136.773438 16.800781 137.945312 14.953125 C 139.117188 13.273438 139.785156 11.089844 140.289062 8.398438 L 140.289062 6.214844 L 135.4375 6.214844 C 135.769531 5.542969 135.9375 4.703125 136.105469 3.863281 L 140.789062 3.863281 L 140.789062 1.679688 L 130.417969 1.679688 L 130.417969 4.03125 Z M 130.917969 4.03125 "/>
<path style=" stroke:none;fill-rule:nonzero;fill:rgb(0%,0%,0%);fill-opacity:1;" d="M 141.960938 3.191406 L 144.136719 3.191406 L 144.136719 15.289062 L 141.960938 15.289062 Z M 141.960938 3.191406 "/>
<path style=" stroke:none;fill-rule:nonzero;fill:rgb(0%,0%,0%);fill-opacity:1;" d="M 146.144531 1.175781 L 146.144531 16.800781 C 146.144531 17.304688 146.144531 17.472656 145.808594 17.640625 C 145.640625 17.808594 145.308594 17.808594 144.636719 17.808594 L 141.960938 17.808594 L 142.296875 20.160156 L 145.140625 20.160156 C 146.3125 20.160156 147.148438 19.992188 147.648438 19.65625 C 148.152344 19.320312 148.316406 18.648438 148.316406 17.808594 L 148.316406 1.175781 Z M 146.144531 1.175781 "/>
<path style=" stroke:none;fill-rule:nonzero;fill:rgb(0%,0%,0%);fill-opacity:1;" d="M 0.0820312 19.992188 L 6.941406 11.089844 L 0.0820312 2.351562 L 3.933594 2.351562 L 9.117188 9.070312 C 9.285156 9.238281 9.453125 9.40625 9.621094 9.40625 C 9.789062 9.40625 10.121094 9.238281 10.289062 8.902344 L 15.476562 2.183594 L 19.15625 2.183594 L 12.632812 10.921875 L 19.492188 19.824219 L 15.644531 19.824219 L 10.289062 13.105469 C 10.121094 12.769531 9.953125 12.601562 9.789062 12.601562 C 9.621094 12.601562 9.453125 12.769531 9.285156 12.9375 L 3.933594 19.824219 L 0.0820312 19.824219 Z M 0.0820312 19.992188 "/>
<path style=" stroke:none;fill-rule:nonzero;fill:rgb(0%,0%,0%);fill-opacity:1;" d="M 28.691406 2.351562 L 43.917969 2.351562 L 43.917969 5.207031 L 31.871094 5.207031 L 31.871094 9.910156 L 43.082031 9.910156 L 43.082031 12.769531 L 31.871094 12.769531 L 31.871094 19.824219 L 28.691406 19.824219 Z M 28.691406 2.351562 "/>
<path style=" stroke:none;fill-rule:nonzero;fill:rgb(0%,0%,0%);fill-opacity:1;" d="M 52.449219 20.160156 C 50.441406 20.160156 48.769531 19.65625 47.765625 18.480469 C 46.59375 17.304688 45.925781 15.625 45.925781 13.441406 C 45.925781 11.257812 46.429688 9.574219 47.765625 8.398438 C 48.9375 7.222656 50.609375 6.71875 52.449219 6.71875 L 54.292969 6.71875 C 56.300781 6.71875 57.972656 7.222656 58.976562 8.398438 C 60.148438 9.574219 60.816406 11.257812 60.816406 13.441406 C 60.816406 15.625 60.3125 17.304688 58.976562 18.480469 C 57.804688 19.65625 56.132812 20.160156 54.292969 20.160156 Z M 54.125 17.640625 C 56.464844 17.640625 57.636719 16.296875 57.636719 13.609375 C 57.636719 10.921875 56.464844 9.574219 54.125 9.574219 L 52.617188 9.574219 C 51.445312 9.574219 50.609375 9.910156 50.109375 10.585938 C 49.4375 11.257812 49.105469 12.265625 49.105469 13.609375 C 49.105469 14.953125 49.4375 15.960938 50.109375 16.632812 C 50.609375 17.304688 51.445312 17.640625 52.617188 17.640625 C 52.617188 17.640625 54.125 17.640625 54.125 17.640625 Z M 54.125 17.640625 "/>
<path style=" stroke:none;fill-rule:nonzero;fill:rgb(0%,0%,0%);fill-opacity:1;" d="M 64.164062 1.34375 L 67.339844 1.34375 L 67.339844 19.992188 L 64.164062 19.992188 Z M 64.164062 1.34375 "/>
<path style=" stroke:none;fill-rule:nonzero;fill:rgb(0%,0%,0%);fill-opacity:1;" d="M 81.5625 1.34375 L 84.742188 1.34375 L 84.742188 19.65625 C 84.742188 20.160156 84.574219 20.328125 84.070312 20.328125 C 83.90625 20.328125 83.570312 20.160156 83.066406 19.824219 L 81.898438 18.816406 C 80.390625 19.824219 78.71875 20.160156 76.878906 20.160156 C 74.871094 20.160156 73.363281 19.65625 72.191406 18.648438 C 70.855469 17.472656 70.351562 15.792969 70.351562 13.441406 C 70.351562 11.089844 71.023438 9.40625 72.191406 8.230469 C 73.363281 7.222656 75.039062 6.71875 77.046875 6.71875 C 78.550781 6.71875 80.058594 7.054688 81.394531 7.726562 Z M 81.5625 10.246094 C 80.726562 9.742188 79.554688 9.574219 77.714844 9.40625 C 76.375 9.40625 75.371094 9.742188 74.703125 10.246094 C 74.035156 10.921875 73.699219 11.929688 73.699219 13.441406 C 73.699219 14.953125 74.035156 15.960938 74.703125 16.632812 C 75.371094 17.136719 76.375 17.640625 77.546875 17.640625 C 78.886719 17.640625 80.222656 17.472656 81.394531 16.96875 L 81.394531 10.246094 Z M 81.5625 10.246094 "/>
<path style=" stroke:none;fill-rule:nonzero;fill:rgb(0%,0%,0%);fill-opacity:1;" d="M 95.949219 20.160156 C 93.105469 20.160156 90.765625 19.824219 88.925781 19.320312 L 88.925781 16.632812 C 91.097656 17.136719 93.441406 17.472656 95.949219 17.472656 C 97.957031 17.472656 99.464844 17.304688 100.300781 16.800781 C 101.136719 16.296875 101.472656 15.625 101.472656 14.617188 C 101.472656 13.609375 101.136719 13.105469 100.46875 12.601562 C 99.964844 12.265625 98.796875 12.097656 97.457031 12.097656 L 93.105469 12.097656 L 93.105469 9.742188 L 99.464844 5.039062 L 89.089844 5.039062 L 89.089844 2.183594 L 102.8125 2.183594 C 103.8125 2.183594 104.148438 2.6875 104.148438 3.527344 C 104.148438 4.199219 103.8125 4.703125 103.144531 5.207031 L 97.289062 9.574219 L 98.292969 9.574219 C 102.476562 9.574219 104.484375 11.257812 104.484375 14.449219 C 104.484375 16.296875 103.8125 17.808594 102.308594 18.816406 C 101.136719 19.824219 98.960938 20.160156 95.949219 20.160156 Z M 95.949219 20.160156 "/>
</g>
</svg>
